<svg width="1024" height="1024" viewBox="0 0 1024 1024" fill="none" xmlns="http://www.w3.org/2000/svg">
<g clip-path="url(#clip0_1103_334)">
<path d="M795.136 320.256C792.518 317.42 789.364 315.13 785.856 313.518C782.348 311.907 778.556 311.007 774.699 310.87L552.32 302.123L535.467 339.243L558.634 409.131L516.779 488.619L533.845 552.619L576.085 607.574L637.269 550.998C640.137 548.372 643.928 546.988 647.813 547.148C651.698 547.308 655.362 548.999 658.005 551.851L736.725 637.014C738.681 639.158 739.967 641.828 740.422 644.694C740.876 647.561 740.481 650.497 739.285 653.142C738.062 655.774 736.091 657.987 733.617 659.505C731.143 661.023 728.276 661.777 725.376 661.675L509.696 653.227L498.944 684.118L510.592 712.022L758.571 721.622C762.426 721.77 766.273 721.157 769.892 719.817C773.51 718.478 776.829 716.438 779.658 713.815C782.488 711.191 784.772 708.036 786.381 704.529C787.99 701.022 788.892 697.232 789.035 693.376L802.859 341.334C803.036 337.484 802.444 333.637 801.118 330.018C799.792 326.399 797.759 323.081 795.136 320.256ZM635.776 481.664C629.851 481.651 623.989 480.443 618.542 478.112C613.094 475.782 608.173 472.377 604.071 468.101C599.969 463.826 596.772 458.767 594.669 453.227C592.567 447.688 591.604 441.781 591.836 435.861C592.068 429.94 593.492 424.127 596.022 418.77C598.552 413.412 602.137 408.619 606.561 404.678C610.985 400.737 616.159 397.729 621.772 395.833C627.386 393.937 633.324 393.192 639.232 393.643C650.606 394.511 661.201 399.756 668.788 408.274C676.376 416.792 680.365 427.92 679.918 439.319C679.47 450.718 674.62 461.499 666.388 469.396C658.156 477.293 647.183 481.69 635.776 481.664ZM475.904 684.63L483.371 652.203L308.224 664.278C305.317 664.494 302.413 663.839 299.879 662.398C297.346 660.957 295.299 658.795 294 656.186C292.7 653.578 292.206 650.641 292.581 647.751C292.957 644.861 294.184 642.148 296.107 639.958L425.899 490.923C427.238 489.391 428.881 488.154 430.723 487.291C432.566 486.428 434.568 485.957 436.602 485.909C438.636 485.861 440.658 486.236 442.539 487.011C444.421 487.786 446.12 488.944 447.531 490.411L490.965 535.723L472.277 487.424L505.216 404.054L474.837 337.323L487.509 298.667L248.661 315.136C244.812 315.401 241.054 316.424 237.601 318.145C234.148 319.865 231.068 322.251 228.539 325.165C226.01 328.078 224.081 331.462 222.863 335.123C221.645 338.783 221.161 342.648 221.44 346.496L245.675 698.07C245.921 701.904 246.927 705.651 248.634 709.094C250.34 712.536 252.713 715.605 255.616 718.123C261.504 723.2 269.184 725.803 276.949 725.291L490.197 710.571L475.904 684.63Z" fill="#CCCDCF"/>
</g>
<defs>
<clipPath id="clip0_1103_334">
<rect width="1024" height="1024" fill="white"/>
</clipPath>
</defs>
</svg>
